<?xml version="1.0" encoding="UTF-8"?>
<svg id="Layer_1" xmlns="http://www.w3.org/2000/svg" version="1.1" viewBox="0 0 232.25 81.13">
  <!-- Generator: Adobe Illustrator 29.0.1, SVG Export Plug-In . SVG Version: 2.1.0 Build 192)  -->
  <path d="M37.86,26.98c-4.56,0-7.72,1.86-10.1,5.9v-5.18h-3.26v34.51h3.26v-14.37c2.43,4.04,5.7,5.9,10.25,5.9,7.41,0,13.21-5.85,13.21-13.31s-5.9-13.46-13.36-13.46ZM37.6,50.8c-5.75,0-10.1-4.51-10.1-10.57,0-5.64,4.61-10.31,10.2-10.31s10.1,4.56,10.1,10.51-4.3,10.36-10.2,10.36Z"/>
  <path d="M83.26,26.98c-8.08,0-13.67,5.49-13.67,13.52s5.54,13.26,13.52,13.26,13.57-5.59,13.57-13.15c0-8.08-5.49-13.62-13.41-13.62ZM83.26,50.8c-6.06,0-10.36-4.35-10.36-10.46s4.35-10.41,10.31-10.41,10.1,4.4,10.1,10.56-4.3,10.31-10.05,10.31Z"/>
  <path d="M71.75,28.97c-1.45-1.22-3.15-1.73-5.44-1.73-.04,0-.08,0-.12,0-.04,0-.08,0-.12,0-3.94,0-6.16,1.5-8.29,5.59.05-1.09.1-1.66.1-2.38v-2.74h-3.11v25.32h3.37v-14.03c0-2.23.05-2.54.52-3.68,1.11-2.62,3.33-4.4,5.94-4.85.19-.03.36-.05.52-.06.19-.02.38-.04.58-.04.16,0,.32-.01.49-.01.17,0,.33,0,.49.01.19,0,.39.02.58.04.16.02.34.04.52.06.72.12,1.4.36,2.05.68.56-.79,1.21-1.52,1.92-2.17Z"/>
  <path d="M132.85,33.3c-2.17-3.99-6.37-6.32-11.29-6.32-7.87,0-13.26,5.44-13.26,13.46s5.28,13.31,13,13.31c3.78,0,7.46-1.45,9.74-3.83,1.29-1.35,1.92-2.43,2.64-4.71h-3.42c-1.61,3.68-4.66,5.59-8.8,5.59-2.64,0-5.13-.88-6.84-2.43-1.86-1.71-2.74-3.73-3.11-7.09h23.1c-.05-3.68-.47-5.64-1.76-7.98ZM111.73,38.58c.21-1.71.47-2.59.98-3.68,1.55-3.11,4.87-4.97,8.7-4.97,3.37,0,6.42,1.45,8.13,3.94.93,1.29,1.35,2.49,1.66,4.71h-19.47Z"/>
  <path d="M158.19,47.23c-1.55,2.23-4.3,3.52-7.51,3.52-5.96,0-10.05-4.25-10.05-10.41s3.88-10.31,9.89-10.31c2.69,0,5.33,1.04,6.94,2.64.88.93,1.29,1.71,1.81,3.37h3.42c-.52-2.07-.93-3.11-1.76-4.25-2.07-2.95-6.06-4.82-10.36-4.82-7.82,0-13.15,5.49-13.15,13.46s5.28,13.31,13,13.31c4.3,0,8.08-1.61,10.25-4.4,1.19-1.45,1.71-2.69,2.28-5.39h-3.47c-.36,1.55-.73,2.38-1.29,3.26Z"/>
  <rect x="166.93" y="38.58" width="16.73" height="3.16"/>
  <polygon points="177.56 18.49 177.56 21.52 191.08 21.52 191.08 62.17 194.39 62.17 194.39 21.52 207.75 21.52 207.75 18.49 177.56 18.49"/>
  <rect x="100.81" y="18.49" width="3.31" height="3.78"/>
  <path d="M100.81,37.16h-.01v15.92c0,4.29-1.88,6.41-5.98,6.71v2.85c6.18-.1,9.31-3.06,9.31-8.85v-26.09h-3.31v9.45Z"/>
</svg>